<svg id="SvgjsSvg1006" width="1014" height="907" xmlns="http://www.w3.org/2000/svg" version="1.1" xmlns:xlink="http://www.w3.org/1999/xlink" xmlns:svgjs="http://svgjs.com/svgjs"><defs id="SvgjsDefs1007"><marker id="SvgjsMarker1046" markerWidth="16" markerHeight="12" refX="16" refY="6" viewBox="0 0 16 12" orient="auto" markerUnits="userSpaceOnUse"><path id="SvgjsPath1047" d="M0,2 L14,6 L0,11 L0,2" fill="#323232" stroke="#323232" stroke-width="2"></path></marker><marker id="SvgjsMarker1056" markerWidth="16" markerHeight="12" refX="16" refY="6" viewBox="0 0 16 12" orient="auto" markerUnits="userSpaceOnUse"><path id="SvgjsPath1057" d="M0,2 L14,6 L0,11 L0,2" fill="#323232" stroke="#323232" stroke-width="2"></path></marker><marker id="SvgjsMarker1086" markerWidth="16" markerHeight="12" refX="16" refY="6" viewBox="0 0 16 12" orient="auto" markerUnits="userSpaceOnUse"><path id="SvgjsPath1087" d="M0,2 L14,6 L0,11 L0,2" fill="#323232" stroke="#323232" stroke-width="2"></path></marker><marker id="SvgjsMarker1090" markerWidth="16" markerHeight="12" refX="16" refY="6" viewBox="0 0 16 12" orient="auto" markerUnits="userSpaceOnUse"><path id="SvgjsPath1091" d="M0,2 L14,6 L0,11 L0,2" fill="#323232" stroke="#323232" stroke-width="2"></path></marker><marker id="SvgjsMarker1106" markerWidth="16" markerHeight="12" refX="16" refY="6" viewBox="0 0 16 12" orient="auto" markerUnits="userSpaceOnUse"><path id="SvgjsPath1107" d="M0,2 L14,6 L0,11 L0,2" fill="#323232" stroke="#323232" stroke-width="2"></path></marker><marker id="SvgjsMarker1110" markerWidth="16" markerHeight="12" refX="16" refY="6" viewBox="0 0 16 12" orient="auto" markerUnits="userSpaceOnUse"><path id="SvgjsPath1111" d="M0,2 L14,6 L0,11 L0,2" fill="#323232" stroke="#323232" stroke-width="2"></path></marker><marker id="SvgjsMarker1114" markerWidth="16" markerHeight="12" refX="16" refY="6" viewBox="0 0 16 12" orient="auto" markerUnits="userSpaceOnUse"><path id="SvgjsPath1115" d="M0,2 L14,6 L0,11 L0,2" fill="#323232" stroke="#323232" stroke-width="2"></path></marker><marker id="SvgjsMarker1118" markerWidth="16" markerHeight="12" refX="16" refY="6" viewBox="0 0 16 12" orient="auto" markerUnits="userSpaceOnUse"><path id="SvgjsPath1119" d="M0,2 L14,6 L0,11 L0,2" fill="#323232" stroke="#323232" stroke-width="2"></path></marker><marker id="SvgjsMarker1122" markerWidth="16" markerHeight="12" refX="16" refY="6" viewBox="0 0 16 12" orient="auto" markerUnits="userSpaceOnUse"><path id="SvgjsPath1123" d="M0,2 L14,6 L0,11 L0,2" fill="#323232" stroke="#323232" stroke-width="2"></path></marker><marker id="SvgjsMarker1214" markerWidth="16" markerHeight="12" refX="16" refY="6" viewBox="0 0 16 12" orient="auto" markerUnits="userSpaceOnUse"><path id="SvgjsPath1215" d="M0,2 L14,6 L0,11 L0,2" fill="#323232" stroke="#323232" stroke-width="2"></path></marker></defs><g id="SvgjsG1008" transform="translate(436,39)"><path id="SvgjsPath1009" d="M 20.299999999999997 0L 49.7 0L 70 20.299999999999997L 70 49.699999999999996L 49.7 70L 20.299999999999997 70L 0 49.699999999999996L 0 20.299999999999997Z" stroke="#323232" stroke-width="2" fill-opacity="1" fill="#ffffff"></path><g id="SvgjsG1010"><text id="SvgjsText1011" font-family="微软雅黑" text-anchor="middle" font-size="13px" width="19" fill="#323232" font-weight="400" align="middle" anchor="middle" family="微软雅黑" size="13px" weight="400" font-style="" y="25.05" transform="rotate(0)"><tspan id="SvgjsTspan1012" dy="16" x="35"><tspan id="SvgjsTspan1013" style="text-decoration:;">obj</tspan></tspan></text></g></g><g id="SvgjsG1014" transform="translate(107,299)"><path id="SvgjsPath1015" d="M 0 4Q 0 0 4 0L 96 0Q 100 0 100 4L 100 66Q 100 70 96 70L 4 70Q 0 70 0 66Z" stroke="#323232" stroke-width="2" fill-opacity="1" fill="#ffffff"></path><g id="SvgjsG1016"><text id="SvgjsText1017" font-family="微软雅黑" text-anchor="middle" font-size="13px" width="40" fill="#323232" font-weight="400" align="middle" anchor="middle" family="微软雅黑" size="13px" weight="400" font-style="" y="25.05" transform="rotate(0)"><tspan id="SvgjsTspan1018" dy="16" x="50"><tspan id="SvgjsTspan1019" style="text-decoration:;">Object</tspan></tspan></text></g></g><g id="SvgjsG1020" transform="translate(107,772)"><path id="SvgjsPath1021" d="M 0 4Q 0 0 4 0L 96 0Q 100 0 100 4L 100 66Q 100 70 96 70L 4 70Q 0 70 0 66Z" stroke="#323232" stroke-width="2" fill-opacity="1" fill="#ffffff"></path><g id="SvgjsG1022"><text id="SvgjsText1023" font-family="微软雅黑" text-anchor="middle" font-size="13px" width="52" fill="#323232" font-weight="400" align="middle" anchor="middle" family="微软雅黑" size="13px" weight="400" font-style="" y="25.05" transform="rotate(0)"><tspan id="SvgjsTspan1024" dy="16" x="50"><tspan id="SvgjsTspan1025" style="text-decoration:;">Function</tspan></tspan></text></g></g><g id="SvgjsG1026" transform="translate(707,283)"><path id="SvgjsPath1027" d="M 0 51C 0 -17 171 -17 171 51C 171 119 0 119 0 51Z" stroke="#323232" stroke-width="2" fill-opacity="1" fill="#ffffff"></path><g id="SvgjsG1028"><text id="SvgjsText1029" font-family="微软雅黑" text-anchor="middle" font-size="13px" width="102" fill="#323232" font-weight="400" align="middle" anchor="middle" family="微软雅黑" size="13px" weight="400" font-style="" y="41.05" transform="rotate(0)"><tspan id="SvgjsTspan1030" dy="16" x="85.5"><tspan id="SvgjsTspan1031" style="text-decoration:;">Object.prototype</tspan></tspan></text></g></g><g id="SvgjsG1032" transform="translate(707,744)"><path id="SvgjsPath1033" d="M 0 51C 0 -17 171 -17 171 51C 171 119 0 119 0 51Z" stroke="#323232" stroke-width="2" fill-opacity="1" fill="#ffffff"></path><g id="SvgjsG1034"><text id="SvgjsText1035" font-family="微软雅黑" text-anchor="middle" font-size="13px" width="114" fill="#323232" font-weight="400" align="middle" anchor="middle" family="微软雅黑" size="13px" weight="400" font-style="" y="41.05" transform="rotate(0)"><tspan id="SvgjsTspan1036" dy="16" x="85.5"><tspan id="SvgjsTspan1037" style="text-decoration:;">Function.prototype</tspan></tspan></text></g></g><g id="SvgjsG1038" transform="translate(411,109)"><path id="SvgjsPath1039" d="M 0 0L 120 0L 120 40L 0 40Z" stroke="none" fill="none"></path><g id="SvgjsG1040"><text id="SvgjsText1041" font-family="微软雅黑" text-anchor="middle" font-size="14px" width="112" fill="#000000" font-weight="700" align="middle" anchor="middle" family="微软雅黑" size="14px" weight="700" font-style="" y="8.9" transform="rotate(0)"><tspan id="SvgjsTspan1042" dy="17" x="60"><tspan id="SvgjsTspan1043" style="text-decoration:;">实例对象（对象）</tspan></tspan></text></g></g><g id="SvgjsG1044"><path id="SvgjsPath1045" d="M157 299C 157.00000000000006 155.6313841874729 292.6313841874729 74 436 74" stroke="#323232" stroke-width="2" fill="none" marker-end="url(#SvgjsMarker1046)"></path></g><g id="SvgjsG1048" transform="translate(25,369)"><path id="SvgjsPath1049" d="M 0 0L 131 0L 131 40L 0 40Z" stroke="none" fill="none"></path><g id="SvgjsG1050"><text id="SvgjsText1051" font-family="微软雅黑" text-anchor="middle" font-size="14px" width="126" fill="#323232" font-weight="700" align="middle" anchor="middle" family="微软雅黑" size="14px" weight="700" font-style="" y="8.9" transform="rotate(0)"><tspan id="SvgjsTspan1052" dy="17" x="65.5"><tspan id="SvgjsTspan1053" style="text-decoration:;">对象构造器（函数）</tspan></tspan></text></g></g><g id="SvgjsG1054"><path id="SvgjsPath1055" d="M157 772L157 570.5L157 570.5L157 369" stroke="#323232" stroke-width="2" fill="none" marker-end="url(#SvgjsMarker1056)"></path></g><g id="SvgjsG1058" transform="translate(81,839)"><path id="SvgjsPath1059" d="M 0 0L 136 0L 136 43L 0 43Z" stroke="none" fill="none"></path><g id="SvgjsG1060"><text id="SvgjsText1061" font-family="微软雅黑" text-anchor="middle" font-size="14px" width="126" fill="#323232" font-weight="700" align="middle" anchor="middle" family="微软雅黑" size="14px" weight="700" font-style="" y="10.4" transform="rotate(0)"><tspan id="SvgjsTspan1062" dy="17" x="68"><tspan id="SvgjsTspan1063" style="text-decoration:;">函数构造器（函数）</tspan></tspan></text></g></g><g id="SvgjsG1064" transform="translate(232,138)"><path id="SvgjsPath1065" d="M 0 0L 119 0L 119 58L 0 58Z" stroke="none" fill="none"></path><g id="SvgjsG1066"><text id="SvgjsText1067" font-family="微软雅黑" text-anchor="middle" font-size="13px" width="77" fill="#323232" font-weight="400" align="middle" anchor="middle" family="微软雅黑" size="13px" weight="400" font-style="" y="3.05" transform="rotate(0)"><tspan id="SvgjsTspan1068" dy="16" x="59.5"><tspan id="SvgjsTspan1069" style="text-decoration:;">实例化对象</tspan></tspan><tspan id="SvgjsTspan1070" dy="16" x="59.5"><tspan id="SvgjsTspan1071" style="text-decoration:;"> </tspan></tspan><tspan id="SvgjsTspan1072" dy="16" x="59.5"><tspan id="SvgjsTspan1073" style="text-decoration:;">new Object()</tspan></tspan></text></g></g><g id="SvgjsG1074" transform="translate(37,560)"><path id="SvgjsPath1075" d="M 0 0L 119 0L 119 58L 0 58Z" stroke="none" fill="none"></path><g id="SvgjsG1076"><text id="SvgjsText1077" font-family="微软雅黑" text-anchor="middle" font-size="13px" width="89" fill="#323232" font-weight="400" align="middle" anchor="middle" family="微软雅黑" size="13px" weight="400" font-style="" y="3.05" transform="rotate(0)"><tspan id="SvgjsTspan1078" dy="16" x="59.5"><tspan id="SvgjsTspan1079" style="text-decoration:;">实例化函数</tspan></tspan><tspan id="SvgjsTspan1080" dy="16" x="59.5"><tspan id="SvgjsTspan1081" style="text-decoration:;"> </tspan></tspan><tspan id="SvgjsTspan1082" dy="16" x="59.5"><tspan id="SvgjsTspan1083" style="text-decoration:;">new Function()</tspan></tspan></text></g></g><g id="SvgjsG1084"><path id="SvgjsPath1085" d="M707 795L207 789" stroke="#323232" stroke-width="2" fill="none" marker-end="url(#SvgjsMarker1086)"></path></g><g id="SvgjsG1088"><path id="SvgjsPath1089" d="M207 807L713.0641777724759 814.4288495612539" stroke="#323232" stroke-width="2" fill="none" marker-end="url(#SvgjsMarker1090)"></path></g><g id="SvgjsG1092" transform="translate(720,844)"><path id="SvgjsPath1093" d="M 0 0L 164 0L 164 38L 0 38Z" stroke="none" fill="none"></path><g id="SvgjsG1094"><text id="SvgjsText1095" font-family="微软雅黑" text-anchor="middle" font-size="14px" width="154" fill="#323232" font-weight="700" align="middle" anchor="middle" family="微软雅黑" size="14px" weight="700" font-style="" y="7.9" transform="rotate(0)"><tspan id="SvgjsTspan1096" dy="17" x="82"><tspan id="SvgjsTspan1097" style="text-decoration:;">函数构造器原型（对象）</tspan></tspan></text></g></g><g id="SvgjsG1098" transform="translate(800,391)"><path id="SvgjsPath1099" d="M 0 0L 149 0L 149 38L 0 38Z" stroke="none" fill="none"></path><g id="SvgjsG1100"><text id="SvgjsText1101" font-family="微软雅黑" text-anchor="middle" font-size="14px" width="140" fill="#323232" font-weight="700" align="middle" anchor="middle" family="微软雅黑" size="14px" weight="700" font-style="" y="7.9" transform="rotate(0)"><tspan id="SvgjsTspan1102" dy="17" x="74.5"><tspan id="SvgjsTspan1103" style="text-decoration:;">原始对象原型（对象）</tspan></tspan></text></g></g><g id="SvgjsG1104"><path id="SvgjsPath1105" d="M792.5 744L792.5 385" stroke="#323232" stroke-width="2" fill="none" marker-end="url(#SvgjsMarker1106)"></path></g><g id="SvgjsG1108"><path id="SvgjsPath1109" d="M207 334L737.9583278321849 755.3441545092566" stroke="#323232" stroke-width="2" fill="none" marker-end="url(#SvgjsMarker1110)"></path></g><g id="SvgjsG1112"><path id="SvgjsPath1113" d="M707 334L207 313" stroke="#323232" stroke-width="2" fill="none" marker-end="url(#SvgjsMarker1114)"></path></g><g id="SvgjsG1116"><path id="SvgjsPath1117" d="M207 334L713.3623111018328 353.5004867321942" stroke="#323232" stroke-width="2" fill="none" marker-end="url(#SvgjsMarker1118)"></path></g><g id="SvgjsG1120"><path id="SvgjsPath1121" d="M506 74C 647.8524585617042 73.99999999999997 792.5 141.1475414382958 792.5 283" stroke="#323232" stroke-width="2" fill="none" marker-end="url(#SvgjsMarker1122)"></path></g><g id="SvgjsG1124" transform="translate(800,577)"><path id="SvgjsPath1125" d="M 0 0L 177 0L 177 44L 0 44Z" stroke="none" fill="none"></path><g id="SvgjsG1126"><text id="SvgjsText1127" font-family="微软雅黑" text-anchor="middle" font-size="13px" width="175" fill="#323232" font-weight="400" align="middle" anchor="middle" family="微软雅黑" size="13px" weight="400" font-style="" y="-11.95" transform="rotate(0)"><tspan id="SvgjsTspan1128" dy="16" x="88.5"><tspan id="SvgjsTspan1129" style="text-decoration:;">原型继承</tspan></tspan><tspan id="SvgjsTspan1130" dy="16" x="88.5"><tspan id="SvgjsTspan1131" style="text-decoration:;"> </tspan></tspan><tspan id="SvgjsTspan1132" dy="16" x="88.5"><tspan id="SvgjsTspan1133" style="text-decoration:;">函数构造器原型的原型</tspan></tspan><tspan id="SvgjsTspan1134" dy="16" x="88.5"><tspan id="SvgjsTspan1135" style="text-decoration:;">Function.prototype.__proto__</tspan></tspan></text></g></g><g id="SvgjsG1136" transform="translate(286,483)"><path id="SvgjsPath1137" d="M 0 0L 120 0L 120 40L 0 40Z" stroke="none" fill="none"></path><g id="SvgjsG1138"><text id="SvgjsText1139" font-family="微软雅黑" text-anchor="middle" font-size="13px" width="77" fill="#323232" font-weight="400" align="middle" anchor="middle" family="微软雅黑" size="13px" weight="400" font-style="" y="-5.95" transform="rotate(0)"><tspan id="SvgjsTspan1140" dy="16" x="60"><tspan id="SvgjsTspan1141" style="text-decoration:;">实例化对象</tspan></tspan><tspan id="SvgjsTspan1142" dy="16" x="60"><tspan id="SvgjsTspan1143" style="text-decoration:;"> </tspan></tspan><tspan id="SvgjsTspan1144" dy="16" x="60"><tspan id="SvgjsTspan1145" style="text-decoration:;">new Object()</tspan></tspan></text></g></g><g id="SvgjsG1146" transform="translate(297,546)"><path id="SvgjsPath1147" d="M 0 0L 167 0L 167 40L 0 40Z" stroke="none" fill="none"></path><g id="SvgjsG1148"><text id="SvgjsText1149" font-family="微软雅黑" text-anchor="middle" font-size="13px" width="144" fill="#323232" font-weight="400" align="middle" anchor="middle" family="微软雅黑" size="13px" weight="400" font-style="" y="-5.95" transform="rotate(0)"><tspan id="SvgjsTspan1150" dy="16" x="83.5"><tspan id="SvgjsTspan1151" style="text-decoration:;">Object作为实例时的原型</tspan></tspan><tspan id="SvgjsTspan1152" dy="16" x="83.5"><tspan id="SvgjsTspan1153" style="text-decoration:;"> </tspan></tspan><tspan id="SvgjsTspan1154" dy="16" x="83.5"><tspan id="SvgjsTspan1155" style="text-decoration:;">Object.__proto__</tspan></tspan></text></g></g><g id="SvgjsG1156" transform="translate(619.5,165)"><path id="SvgjsPath1157" d="M 0 0L 120 0L 120 40L 0 40Z" stroke="none" fill="none"></path><g id="SvgjsG1158"><text id="SvgjsText1159" font-family="微软雅黑" text-anchor="middle" font-size="13px" width="80" fill="#323232" font-weight="400" align="middle" anchor="middle" family="微软雅黑" size="13px" weight="400" font-style="" y="-5.95" transform="rotate(0)"><tspan id="SvgjsTspan1160" dy="16" x="60"><tspan id="SvgjsTspan1161" style="text-decoration:;">对象实例原型</tspan></tspan><tspan id="SvgjsTspan1162" dy="16" x="60"><tspan id="SvgjsTspan1163" style="text-decoration:;"> </tspan></tspan><tspan id="SvgjsTspan1164" dy="16" x="60"><tspan id="SvgjsTspan1165" style="text-decoration:;">obj.__proto__</tspan></tspan></text></g></g><g id="SvgjsG1166" transform="translate(320.5,741)"><path id="SvgjsPath1167" d="M 0 0L 203.5 0L 203.5 41L 0 41Z" stroke="none" fill="none"></path><g id="SvgjsG1168"><text id="SvgjsText1169" font-family="微软雅黑" text-anchor="middle" font-size="13px" width="186" fill="#323232" font-weight="400" align="middle" anchor="middle" family="微软雅黑" size="13px" weight="400" font-style="" y="-5.45" transform="rotate(0)"><tspan id="SvgjsTspan1170" dy="16" x="102"><tspan id="SvgjsTspan1171" style="text-decoration:;">函数构造器原型的构造函数</tspan></tspan><tspan id="SvgjsTspan1172" dy="16" x="102"><tspan id="SvgjsTspan1173" style="text-decoration:;"> </tspan></tspan><tspan id="SvgjsTspan1174" dy="16" x="102"><tspan id="SvgjsTspan1175" style="text-decoration:;">Function.prototype.constructor</tspan></tspan></text></g></g><g id="SvgjsG1176" transform="translate(327.5,823)"><path id="SvgjsPath1177" d="M 0 0L 203.5 0L 203.5 41L 0 41Z" stroke="none" fill="none"></path><g id="SvgjsG1178"><text id="SvgjsText1179" font-family="微软雅黑" text-anchor="middle" font-size="13px" width="169" fill="#323232" font-weight="400" align="middle" anchor="middle" family="微软雅黑" size="13px" weight="400" font-style="" y="-5.45" transform="rotate(0)"><tspan id="SvgjsTspan1180" dy="16" x="102"><tspan id="SvgjsTspan1181" style="text-decoration:;">Function当作构造器时的原型</tspan></tspan><tspan id="SvgjsTspan1182" dy="16" x="102"><tspan id="SvgjsTspan1183" style="text-decoration:;"> </tspan></tspan><tspan id="SvgjsTspan1184" dy="16" x="102"><tspan id="SvgjsTspan1185" style="text-decoration:;">Function.prototype</tspan></tspan></text></g></g><g id="SvgjsG1186" transform="translate(386,268)"><path id="SvgjsPath1187" d="M 0 0L 187 0L 187 41L 0 41Z" stroke="none" fill="none"></path><g id="SvgjsG1188"><text id="SvgjsText1189" font-family="微软雅黑" text-anchor="middle" font-size="13px" width="174" fill="#323232" font-weight="400" align="middle" anchor="middle" family="微软雅黑" size="13px" weight="400" font-style="" y="-5.45" transform="rotate(0)"><tspan id="SvgjsTspan1190" dy="16" x="93.5"><tspan id="SvgjsTspan1191" style="text-decoration:;">原始对象原型的构造函数</tspan></tspan><tspan id="SvgjsTspan1192" dy="16" x="93.5"><tspan id="SvgjsTspan1193" style="text-decoration:;"> </tspan></tspan><tspan id="SvgjsTspan1194" dy="16" x="93.5"><tspan id="SvgjsTspan1195" style="text-decoration:;">Object.prototype.constructor</tspan></tspan></text></g></g><g id="SvgjsG1196" transform="translate(402,360)"><path id="SvgjsPath1197" d="M 0 0L 187 0L 187 41L 0 41Z" stroke="none" fill="none"></path><g id="SvgjsG1198"><text id="SvgjsText1199" font-family="微软雅黑" text-anchor="middle" font-size="13px" width="157" fill="#323232" font-weight="400" align="middle" anchor="middle" family="微软雅黑" size="13px" weight="400" font-style="" y="-5.45" transform="rotate(0)"><tspan id="SvgjsTspan1200" dy="16" x="93.5"><tspan id="SvgjsTspan1201" style="text-decoration:;">Object当作构造器时的原型</tspan></tspan><tspan id="SvgjsTspan1202" dy="16" x="93.5"><tspan id="SvgjsTspan1203" style="text-decoration:;"> </tspan></tspan><tspan id="SvgjsTspan1204" dy="16" x="93.5"><tspan id="SvgjsTspan1205" style="text-decoration:;">Object.prototype</tspan></tspan></text></g></g><g id="SvgjsG1206" transform="translate(732.5,25)"><path id="SvgjsPath1207" d="M 0 0L 120 0L 120 40L 0 40Z" stroke="none" fill="none"></path><g id="SvgjsG1208"><text id="SvgjsText1209" font-family="微软雅黑" text-anchor="middle" font-size="28px" width="47" fill="#323232" font-weight="700" align="middle" anchor="middle" family="微软雅黑" size="28px" weight="700" font-style="" y="-1.7000000000000002" transform="rotate(0)"><tspan id="SvgjsTspan1210" dy="35" x="60"><tspan id="SvgjsTspan1211" style="text-decoration:;">null</tspan></tspan></text></g></g><g id="SvgjsG1212"><path id="SvgjsPath1213" d="M792.5 283C 792.5 195.8 792.5 152.2 792.5 65" stroke="#323232" stroke-width="2" fill="none" marker-end="url(#SvgjsMarker1214)"></path></g><g id="SvgjsG1216" transform="translate(804,125)"><path id="SvgjsPath1217" d="M 0 0L 185 0L 185 40L 0 40Z" stroke="none" fill="none"></path><g id="SvgjsG1218"><text id="SvgjsText1219" font-family="微软雅黑" text-anchor="middle" font-size="13px" width="163" fill="#323232" font-weight="400" align="middle" anchor="middle" family="微软雅黑" size="13px" weight="400" font-style="" y="-5.95" transform="rotate(0)"><tspan id="SvgjsTspan1220" dy="16" x="92.5"><tspan id="SvgjsTspan1221" style="text-decoration:;">原始对象原型的原型</tspan></tspan><tspan id="SvgjsTspan1222" dy="16" x="92.5"><tspan id="SvgjsTspan1223" style="text-decoration:;"> </tspan></tspan><tspan id="SvgjsTspan1224" dy="16" x="92.5"><tspan id="SvgjsTspan1225" style="text-decoration:;">Object.prototype.__proto__</tspan></tspan></text></g></g></svg>