<svg id="SvgjsSvg1006" width="1028" height="836" xmlns="http://www.w3.org/2000/svg" version="1.1" xmlns:xlink="http://www.w3.org/1999/xlink" xmlns:svgjs="http://svgjs.com/svgjs"><defs id="SvgjsDefs1007"><marker id="SvgjsMarker1058" markerWidth="16" markerHeight="12" refX="16" refY="6" viewBox="0 0 16 12" orient="auto" markerUnits="userSpaceOnUse"><path id="SvgjsPath1059" d="M0,2 L14,6 L0,11 L0,2" fill="#323232" stroke="#323232" stroke-width="2"></path></marker><marker id="SvgjsMarker1066" markerWidth="16" markerHeight="12" refX="16" refY="6" viewBox="0 0 16 12" orient="auto" markerUnits="userSpaceOnUse"><path id="SvgjsPath1067" d="M0,2 L14,6 L0,11 L0,2" fill="#323232" stroke="#323232" stroke-width="2"></path></marker><marker id="SvgjsMarker1074" markerWidth="16" markerHeight="12" refX="16" refY="6" viewBox="0 0 16 12" orient="auto" markerUnits="userSpaceOnUse"><path id="SvgjsPath1075" d="M0,2 L14,6 L0,11 L0,2" fill="#323232" stroke="#323232" stroke-width="2"></path></marker><marker id="SvgjsMarker1082" markerWidth="16" markerHeight="12" refX="16" refY="6" viewBox="0 0 16 12" orient="auto" markerUnits="userSpaceOnUse"><path id="SvgjsPath1083" d="M0,2 L14,6 L0,11 L0,2" fill="#323232" stroke="#323232" stroke-width="2"></path></marker><marker id="SvgjsMarker1096" markerWidth="16" markerHeight="12" refX="16" refY="6" viewBox="0 0 16 12" orient="auto" markerUnits="userSpaceOnUse"><path id="SvgjsPath1097" d="M0,2 L14,6 L0,11 L0,2" fill="#323232" stroke="#323232" stroke-width="2"></path></marker><marker id="SvgjsMarker1104" markerWidth="16" markerHeight="12" refX="16" refY="6" viewBox="0 0 16 12" orient="auto" markerUnits="userSpaceOnUse"><path id="SvgjsPath1105" d="M0,2 L14,6 L0,11 L0,2" fill="#323232" stroke="#323232" stroke-width="2"></path></marker><marker id="SvgjsMarker1112" markerWidth="16" markerHeight="12" refX="16" refY="6" viewBox="0 0 16 12" orient="auto" markerUnits="userSpaceOnUse"><path id="SvgjsPath1113" d="M0,2 L14,6 L0,11 L0,2" fill="#323232" stroke="#323232" stroke-width="2"></path></marker></defs><g id="SvgjsG1008" transform="translate(433,25)"><path id="SvgjsPath1009" d="M 0 42.5C 0 -14.166666666666666 163 -14.166666666666666 163 42.5C 163 99.16666666666667 0 99.16666666666667 0 42.5Z" stroke="#323232" stroke-width="2" fill-opacity="1" fill="#ffffff"></path><g id="SvgjsG1010"><text id="SvgjsText1011" font-family="微软雅黑" text-anchor="middle" font-size="13px" width="102" fill="#323232" font-weight="400" align="middle" anchor="middle" family="微软雅黑" size="13px" weight="400" font-style="" y="32.55" transform="rotate(0)"><tspan id="SvgjsTspan1012" dy="16" x="81.5"><tspan id="SvgjsTspan1013" style="text-decoration:;">Object.prototype</tspan></tspan></text></g></g><g id="SvgjsG1014" transform="translate(109,504)"><path id="SvgjsPath1015" d="M 0 42.5C 0 -14.166666666666666 163 -14.166666666666666 163 42.5C 163 99.16666666666667 0 99.16666666666667 0 42.5Z" stroke="#323232" stroke-width="2" fill-opacity="1" fill="#ffffff"></path><g id="SvgjsG1016"><text id="SvgjsText1017" font-family="微软雅黑" text-anchor="middle" font-size="13px" width="81" fill="#323232" font-weight="400" align="middle" anchor="middle" family="微软雅黑" size="13px" weight="400" font-style="" y="32.55" transform="rotate(0)"><tspan id="SvgjsTspan1018" dy="16" x="81.5"><tspan id="SvgjsTspan1019" style="text-decoration:;">cat.prototype</tspan></tspan></text></g></g><g id="SvgjsG1020" transform="translate(433,234)"><path id="SvgjsPath1021" d="M 0 42.5C 0 -14.166666666666666 163 -14.166666666666666 163 42.5C 163 99.16666666666667 0 99.16666666666667 0 42.5Z" stroke="#323232" stroke-width="2" fill-opacity="1" fill="#ffffff"></path><g id="SvgjsG1022"><text id="SvgjsText1023" font-family="微软雅黑" text-anchor="middle" font-size="13px" width="101" fill="#323232" font-weight="400" align="middle" anchor="middle" family="微软雅黑" size="13px" weight="400" font-style="" y="32.55" transform="rotate(0)"><tspan id="SvgjsTspan1024" dy="16" x="81.5"><tspan id="SvgjsTspan1025" style="text-decoration:;">animal.prototype</tspan></tspan></text></g></g><g id="SvgjsG1026" transform="translate(750,504)"><path id="SvgjsPath1027" d="M 0 42.5C 0 -14.166666666666666 163 -14.166666666666666 163 42.5C 163 99.16666666666667 0 99.16666666666667 0 42.5Z" stroke="#323232" stroke-width="2" fill-opacity="1" fill="#ffffff"></path><g id="SvgjsG1028"><text id="SvgjsText1029" font-family="微软雅黑" text-anchor="middle" font-size="13px" width="84" fill="#323232" font-weight="400" align="middle" anchor="middle" family="微软雅黑" size="13px" weight="400" font-style="" y="32.55" transform="rotate(0)"><tspan id="SvgjsTspan1030" dy="16" x="81.5"><tspan id="SvgjsTspan1031" style="text-decoration:;">dog.prototype</tspan></tspan></text></g></g><g id="SvgjsG1032" transform="translate(25,741)"><path id="SvgjsPath1033" d="M 14.7 0L 69.3 0L 84 35L 69.3 70L 14.7 70L 0 35L 14.7 0Z" stroke="#323232" stroke-width="2" fill-opacity="1" fill="#ffffff"></path><g id="SvgjsG1034"><text id="SvgjsText1035" font-family="微软雅黑" text-anchor="middle" font-size="13px" width="26" fill="#323232" font-weight="400" align="middle" anchor="middle" family="微软雅黑" size="13px" weight="400" font-style="" y="25.05" transform="rotate(0)"><tspan id="SvgjsTspan1036" dy="16" x="42"><tspan id="SvgjsTspan1037" style="text-decoration:;">白猫</tspan></tspan></text></g></g><g id="SvgjsG1038" transform="translate(265,741)"><path id="SvgjsPath1039" d="M 14.7 0L 69.3 0L 84 35L 69.3 70L 14.7 70L 0 35L 14.7 0Z" stroke="#323232" stroke-width="2" fill-opacity="1" fill="#ffffff"></path><g id="SvgjsG1040"><text id="SvgjsText1041" font-family="微软雅黑" text-anchor="middle" font-size="13px" width="26" fill="#323232" font-weight="400" align="middle" anchor="middle" family="微软雅黑" size="13px" weight="400" font-style="" y="25.05" transform="rotate(0)"><tspan id="SvgjsTspan1042" dy="16" x="42"><tspan id="SvgjsTspan1043" style="text-decoration:;">黑猫</tspan></tspan></text></g></g><g id="SvgjsG1044" transform="translate(657,741)"><path id="SvgjsPath1045" d="M 14.7 0L 69.3 0L 84 35L 69.3 70L 14.7 70L 0 35L 14.7 0Z" stroke="#323232" stroke-width="2" fill-opacity="1" fill="#ffffff"></path><g id="SvgjsG1046"><text id="SvgjsText1047" font-family="微软雅黑" text-anchor="middle" font-size="13px" width="26" fill="#323232" font-weight="400" align="middle" anchor="middle" family="微软雅黑" size="13px" weight="400" font-style="" y="25.05" transform="rotate(0)"><tspan id="SvgjsTspan1048" dy="16" x="42"><tspan id="SvgjsTspan1049" style="text-decoration:;">白狗</tspan></tspan></text></g></g><g id="SvgjsG1050" transform="translate(919,741)"><path id="SvgjsPath1051" d="M 14.7 0L 69.3 0L 84 35L 69.3 70L 14.7 70L 0 35L 14.7 0Z" stroke="#323232" stroke-width="2" fill-opacity="1" fill="#ffffff"></path><g id="SvgjsG1052"><text id="SvgjsText1053" font-family="微软雅黑" text-anchor="middle" font-size="13px" width="26" fill="#323232" font-weight="400" align="middle" anchor="middle" family="微软雅黑" size="13px" weight="400" font-style="" y="25.05" transform="rotate(0)"><tspan id="SvgjsTspan1054" dy="16" x="42"><tspan id="SvgjsTspan1055" style="text-decoration:;">黑狗</tspan></tspan></text></g></g><g id="SvgjsG1056"><path id="SvgjsPath1057" d="M831.5 589L831.5 665L699 665L699 741" stroke="#323232" stroke-width="2" fill="none" marker-end="url(#SvgjsMarker1058)"></path><rect id="SvgjsRect1060" width="78" height="16" x="726.25" y="657" fill="#ffffff"></rect><text id="SvgjsText1061" font-family="微软雅黑" text-anchor="middle" font-size="13px" width="78" fill="#323232" font-weight="400" align="top" anchor="middle" family="微软雅黑" size="13px" weight="400" font-style="" y="655.05" transform="rotate(0)"><tspan id="SvgjsTspan1062" dy="16" x="765.25"><tspan id="SvgjsTspan1063" style="text-decoration:;">实例化一只狗</tspan></tspan></text></g><g id="SvgjsG1064"><path id="SvgjsPath1065" d="M831.5 589L831.5 665L961 665L961 741" stroke="#323232" stroke-width="2" fill="none" marker-end="url(#SvgjsMarker1066)"></path><rect id="SvgjsRect1068" width="78" height="16" x="857.25" y="657" fill="#ffffff"></rect><text id="SvgjsText1069" font-family="微软雅黑" text-anchor="middle" font-size="13px" width="78" fill="#323232" font-weight="400" align="top" anchor="middle" family="微软雅黑" size="13px" weight="400" font-style="" y="655.05" transform="rotate(0)"><tspan id="SvgjsTspan1070" dy="16" x="896.25"><tspan id="SvgjsTspan1071" style="text-decoration:;">实例化一只狗</tspan></tspan></text></g><g id="SvgjsG1072"><path id="SvgjsPath1073" d="M190.5 589L190.5 665L307 665L307 741" stroke="#323232" stroke-width="2" fill="none" marker-end="url(#SvgjsMarker1074)"></path><rect id="SvgjsRect1076" width="78" height="16" x="209.75" y="657" fill="#ffffff"></rect><text id="SvgjsText1077" font-family="微软雅黑" text-anchor="middle" font-size="13px" width="78" fill="#323232" font-weight="400" align="top" anchor="middle" family="微软雅黑" size="13px" weight="400" font-style="" y="655.05" transform="rotate(0)"><tspan id="SvgjsTspan1078" dy="16" x="248.75"><tspan id="SvgjsTspan1079" style="text-decoration:;">实例化一只猫</tspan></tspan></text></g><g id="SvgjsG1080"><path id="SvgjsPath1081" d="M190.5 589L190.5 665L67 665L67 741" stroke="#323232" stroke-width="2" fill="none" marker-end="url(#SvgjsMarker1082)"></path><rect id="SvgjsRect1084" width="78" height="16" x="89.75" y="657" fill="#ffffff"></rect><text id="SvgjsText1085" font-family="微软雅黑" text-anchor="middle" font-size="13px" width="78" fill="#323232" font-weight="400" align="top" anchor="middle" family="微软雅黑" size="13px" weight="400" font-style="" y="655.05" transform="rotate(0)"><tspan id="SvgjsTspan1086" dy="16" x="128.75"><tspan id="SvgjsTspan1087" style="text-decoration:;">实例化一只猫</tspan></tspan></text></g><g id="SvgjsG1088" transform="translate(606,47.5)"><path id="SvgjsPath1089" d="M 0 0L 120 0L 120 40L 0 40Z" stroke="none" fill="none"></path><g id="SvgjsG1090"><text id="SvgjsText1091" font-family="微软雅黑" text-anchor="middle" font-size="13px" width="117" fill="#323232" font-weight="400" align="middle" anchor="middle" family="微软雅黑" size="13px" weight="400" font-style="" y="10.05" transform="rotate(0)"><tspan id="SvgjsTspan1092" dy="16" x="60"><tspan id="SvgjsTspan1093" style="text-decoration:;">具有对象的原型属性</tspan></tspan></text></g></g><g id="SvgjsG1094"><path id="SvgjsPath1095" d="M514.5 234L514.5 172L514.5 172L514.5 110" stroke="#323232" stroke-width="2" fill="none" marker-end="url(#SvgjsMarker1096)"></path><rect id="SvgjsRect1098" width="52" height="16" x="488.5" y="164" fill="#ffffff"></rect><text id="SvgjsText1099" font-family="微软雅黑" text-anchor="middle" font-size="13px" width="52" fill="#323232" font-weight="400" align="top" anchor="middle" family="微软雅黑" size="13px" weight="400" font-style="" y="162.05" transform="rotate(0)"><tspan id="SvgjsTspan1100" dy="16" x="514.5"><tspan id="SvgjsTspan1101" style="text-decoration:;">原型继承</tspan></tspan></text></g><g id="SvgjsG1102"><path id="SvgjsPath1103" d="M190.5 504L190.5 411.5L514.5 411.5L514.5 319" stroke="#323232" stroke-width="2" fill="none" marker-end="url(#SvgjsMarker1104)"></path><rect id="SvgjsRect1106" width="26" height="16" x="339.5" y="403.5" fill="#ffffff"></rect><text id="SvgjsText1107" font-family="微软雅黑" text-anchor="middle" font-size="13px" width="26" fill="#323232" font-weight="400" align="top" anchor="middle" family="微软雅黑" size="13px" weight="400" font-style="" y="401.55" transform="rotate(0)"><tspan id="SvgjsTspan1108" dy="16" x="352.5"><tspan id="SvgjsTspan1109" style="text-decoration:;">继承</tspan></tspan></text></g><g id="SvgjsG1110"><path id="SvgjsPath1111" d="M831.5 504L831.5 411.5L514.5 411.5L514.5 319" stroke="#323232" stroke-width="2" fill="none" marker-end="url(#SvgjsMarker1112)"></path><rect id="SvgjsRect1114" width="26" height="16" x="660" y="403.5" fill="#ffffff"></rect><text id="SvgjsText1115" font-family="微软雅黑" text-anchor="middle" font-size="13px" width="26" fill="#323232" font-weight="400" align="top" anchor="middle" family="微软雅黑" size="13px" weight="400" font-style="" y="401.55" transform="rotate(0)"><tspan id="SvgjsTspan1116" dy="16" x="673"><tspan id="SvgjsTspan1117" style="text-decoration:;">继承</tspan></tspan></text></g><g id="SvgjsG1118" transform="translate(606,256.5)"><path id="SvgjsPath1119" d="M 0 0L 120 0L 120 40L 0 40Z" stroke="none" fill="none"></path><g id="SvgjsG1120"><text id="SvgjsText1121" font-family="微软雅黑" text-anchor="middle" font-size="13px" width="117" fill="#323232" font-weight="400" align="middle" anchor="middle" family="微软雅黑" size="13px" weight="400" font-style="" y="10.05" transform="rotate(0)"><tspan id="SvgjsTspan1122" dy="16" x="60"><tspan id="SvgjsTspan1123" style="text-decoration:;">具有动物的原型属性</tspan></tspan></text></g></g><g id="SvgjsG1124" transform="translate(287,526.5)"><path id="SvgjsPath1125" d="M 0 0L 120 0L 120 40L 0 40Z" stroke="none" fill="none"></path><g id="SvgjsG1126"><text id="SvgjsText1127" font-family="微软雅黑" text-anchor="middle" font-size="13px" width="104" fill="#323232" font-weight="400" align="middle" anchor="middle" family="微软雅黑" size="13px" weight="400" font-style="" y="10.05" transform="rotate(0)"><tspan id="SvgjsTspan1128" dy="16" x="60"><tspan id="SvgjsTspan1129" style="text-decoration:;">具有猫的通用属性</tspan></tspan></text></g></g><g id="SvgjsG1130" transform="translate(615,526.5)"><path id="SvgjsPath1131" d="M 0 0L 120 0L 120 40L 0 40Z" stroke="none" fill="none"></path><g id="SvgjsG1132"><text id="SvgjsText1133" font-family="微软雅黑" text-anchor="middle" font-size="13px" width="104" fill="#323232" font-weight="400" align="middle" anchor="middle" family="微软雅黑" size="13px" weight="400" font-style="" y="10.05" transform="rotate(0)"><tspan id="SvgjsTspan1134" dy="16" x="60"><tspan id="SvgjsTspan1135" style="text-decoration:;">具有狗的通用属性</tspan></tspan></text></g></g></svg>